<svg width="67" height="87" viewBox="0 0 67 87" fill="none" xmlns="http://www.w3.org/2000/svg">
<path d="M33.5 19.7727V31.6364L50.25 15.8182L33.5 0V11.8636C14.9912 11.8636 0 26.0209 0 43.5C0 49.7086 1.92625 55.4823 5.1925 60.3464L11.3062 54.5727C9.42187 51.2905 8.375 47.4941 8.375 43.5C8.375 30.4105 19.6394 19.7727 33.5 19.7727ZM61.8075 26.6536L55.6937 32.4273C57.5362 35.7491 58.625 39.5059 58.625 43.5C58.625 56.5895 47.3606 67.2273 33.5 67.2273V55.3636L16.75 71.1818L33.5 87V75.1364C52.0088 75.1364 67 60.9791 67 43.5C67 37.2914 65.0738 31.5177 61.8075 26.6536V26.6536Z" fill="#E5E7FF"/>
</svg>
